HIERARCHY
ROOT mixamorig:Hips
{
	OFFSET 0.00 0.00 0.00
	CHANNELS 6 Xposition Yposition Zposition Zrotation Yrotation Xrotation
	JOINT mixamorig:Spine
	{
		OFFSET	-0.0379	9.4905	-1.3921
		CHANNELS 3 Zrotation Yrotation Xrotation
		JOINT mixamorig:Spine1
		{
			OFFSET	-0.0442	11.0722	-1.6241
			CHANNELS 3 Zrotation Yrotation Xrotation
			JOINT mixamorig:Spine2
			{
				OFFSET	-0.0506	12.6540	-1.8561
				CHANNELS 3 Zrotation Yrotation Xrotation
				JOINT mixamorig:Neck
				{
					OFFSET	-0.0569	14.2358	-2.0881
					CHANNELS 3 Zrotation Yrotation Xrotation
					JOINT mixamorig:Head
					{
						OFFSET	0.0000	3.2802	0.3133
						CHANNELS 3 Zrotation Yrotation Xrotation
						End Site
						{
							OFFSET 0.0000 25.6535 2.4505
						}
					}
				}
				JOINT mixamorig:LeftShoulder
				{
					OFFSET	6.7288	11.7566	-2.0585
					CHANNELS 3 Zrotation Yrotation Xrotation
					JOINT mixamorig:LeftArm
					{
						OFFSET	13.5713	-4.9583	0.0593
						CHANNELS 3 Zrotation Yrotation Xrotation
						JOINT mixamorig:LeftForeArm
						{
							OFFSET	17.2582	-15.4446	-0.1304
							CHANNELS 3 Zrotation Yrotation Xrotation
							JOINT mixamorig:LeftHand
							{
								OFFSET	19.1747	-11.8144	8.4973
								CHANNELS 3 Zrotation Yrotation Xrotation
								JOINT mixamorig:LeftHandThumb1
								{
									OFFSET	1.4152	-3.1459	3.3921
									CHANNELS 3 Zrotation Yrotation Xrotation
									JOINT mixamorig:LeftHandThumb2
									{
										OFFSET	1.1321	-2.5167	2.7137
										CHANNELS 3 Zrotation Yrotation Xrotation
										JOINT mixamorig:LeftHandThumb3
										{
											OFFSET	0.8208	-4.0642	2.2357
											CHANNELS 3 Zrotation Yrotation Xrotation
											End Site
											{
												OFFSET 1.6034 -3.3436 0.9597
											}
										}
									}
								}
								JOINT mixamorig:LeftHandIndex1
								{
									OFFSET	9.2608	-6.0923	10.0311
									CHANNELS 3 Zrotation Yrotation Xrotation
									JOINT mixamorig:LeftHandIndex2
									{
										OFFSET	2.1918	-1.7186	1.6722
										CHANNELS 3 Zrotation Yrotation Xrotation
										JOINT mixamorig:LeftHandIndex3
										{
											OFFSET	1.7360	-1.7660	0.9701
											CHANNELS 3 Zrotation Yrotation Xrotation
											End Site
											{
												OFFSET 2.0655 -2.6048 1.4660
											}
										}
									}
								}
								JOINT mixamorig:LeftHandMiddle1
								{
									OFFSET	10.5922	-6.2980	7.4687
									CHANNELS 3 Zrotation Yrotation Xrotation
									JOINT mixamorig:LeftHandMiddle2
									{
										OFFSET	2.5325	-1.7582	1.0567
										CHANNELS 3 Zrotation Yrotation Xrotation
										JOINT mixamorig:LeftHandMiddle3
										{
											OFFSET	1.4253	-2.1413	0.5937
											CHANNELS 3 Zrotation Yrotation Xrotation
											End Site
											{
												OFFSET 1.4359 -3.3336 0.5679
											}
										}
									}
								}
								JOINT mixamorig:LeftHandRing1
								{
									OFFSET	11.3894	-6.2561	4.0229
									CHANNELS 3 Zrotation Yrotation Xrotation
									JOINT mixamorig:LeftHandRing2
									{
										OFFSET	2.1076	-1.6023	0.6135
										CHANNELS 3 Zrotation Yrotation Xrotation
										JOINT mixamorig:LeftHandRing3
										{
											OFFSET	0.7822	-1.9700	0.2509
											CHANNELS 3 Zrotation Yrotation Xrotation
											End Site
											{
												OFFSET 0.4716 -2.6865 0.5721
											}
										}
									}
								}
								JOINT mixamorig:LeftHandPinky1
								{
									OFFSET	10.9033	-6.8431	1.2170
									CHANNELS 3 Zrotation Yrotation Xrotation
									JOINT mixamorig:LeftHandPinky2
									{
										OFFSET	1.0521	-1.1494	-0.0577
										CHANNELS 3 Zrotation Yrotation Xrotation
										JOINT mixamorig:LeftHandPinky3
										{
											OFFSET	0.2801	-1.5065	0.1598
											CHANNELS 3 Zrotation Yrotation Xrotation
											End Site
											{
												OFFSET 0.6358 -1.4513 0.5238
											}
										}
									}
								}
							}
						}
					}
				}
				JOINT mixamorig:RightShoulder
				{
					OFFSET	-6.8238	11.7566	-2.1177
					CHANNELS 3 Zrotation Yrotation Xrotation
					JOINT mixamorig:RightArm
					{
						OFFSET	-13.5338	-4.9583	-0.0593
						CHANNELS 3 Zrotation Yrotation Xrotation
						JOINT mixamorig:RightForeArm
						{
							OFFSET	-17.2582	-15.4446	-0.1126
							CHANNELS 3 Zrotation Yrotation Xrotation
							JOINT mixamorig:RightHand
							{
								OFFSET	-19.1747	-11.8143	8.6982
								CHANNELS 3 Zrotation Yrotation Xrotation
								JOINT mixamorig:RightHandThumb1
								{
									OFFSET	-1.4504	-3.2286	3.3657
									CHANNELS 3 Zrotation Yrotation Xrotation
									JOINT mixamorig:RightHandThumb2
									{
										OFFSET	-1.1603	-2.5829	2.6926
										CHANNELS 3 Zrotation Yrotation Xrotation
										JOINT mixamorig:RightHandThumb3
										{
											OFFSET	-0.8066	-4.0900	2.2727
											CHANNELS 3 Zrotation Yrotation Xrotation
											End Site
											{
												OFFSET -1.3619 -3.3561 1.1081
											}
										}
									}
								}
								JOINT mixamorig:RightHandIndex1
								{
									OFFSET	-9.3119	-5.9977	10.0611
									CHANNELS 3 Zrotation Yrotation Xrotation
									JOINT mixamorig:RightHandIndex2
									{
										OFFSET	-2.1048	-1.8288	1.6029
										CHANNELS 3 Zrotation Yrotation Xrotation
										JOINT mixamorig:RightHandIndex3
										{
											OFFSET	-1.7590	-1.7055	0.9784
											CHANNELS 3 Zrotation Yrotation Xrotation
											End Site
											{
												OFFSET -2.1656 -2.6293 1.3206
											}
										}
									}
								}
								JOINT mixamorig:RightHandMiddle1
								{
									OFFSET	-10.8050	-6.3490	7.3536
									CHANNELS 3 Zrotation Yrotation Xrotation
									JOINT mixamorig:RightHandMiddle2
									{
										OFFSET	-2.3752	-1.6487	1.1901
										CHANNELS 3 Zrotation Yrotation Xrotation
										JOINT mixamorig:RightHandMiddle3
										{
											OFFSET	-1.3712	-2.2392	0.4981
											CHANNELS 3 Zrotation Yrotation Xrotation
											End Site
											{
												OFFSET -1.5574 -2.6423 0.6323
											}
										}
									}
								}
								JOINT mixamorig:RightHandRing1
								{
									OFFSET	-10.9108	-6.1334	3.9079
									CHANNELS 3 Zrotation Yrotation Xrotation
									JOINT mixamorig:RightHandRing2
									{
										OFFSET	-2.1215	-1.2548	0.4888
										CHANNELS 3 Zrotation Yrotation Xrotation
										JOINT mixamorig:RightHandRing3
										{
											OFFSET	-1.1529	-1.8295	0.3881
											CHANNELS 3 Zrotation Yrotation Xrotation
											End Site
											{
												OFFSET -1.1314 -2.8340 0.3221
											}
										}
									}
								}
								JOINT mixamorig:RightHandPinky1
								{
									OFFSET	-11.0147	-6.9107	1.0680
									CHANNELS 3 Zrotation Yrotation Xrotation
									JOINT mixamorig:RightHandPinky2
									{
										OFFSET	-0.9868	-1.3546	0.1104
										CHANNELS 3 Zrotation Yrotation Xrotation
										JOINT mixamorig:RightHandPinky3
										{
											OFFSET	-0.2187	-1.3359	0.1675
											CHANNELS 3 Zrotation Yrotation Xrotation
											End Site
											{
												OFFSET -0.5717 -1.4745 0.5311
											}
										}
									}
								}
							}
						}
					}
				}
			}
		}
	}
	JOINT mixamorig:LeftUpLeg
	{
		OFFSET	9.6182	-5.2725	-1.0109
		CHANNELS 3 Zrotation Yrotation Xrotation
		JOINT mixamorig:LeftLeg
		{
			OFFSET	1.3853	-43.3265	-1.1856
			CHANNELS 3 Zrotation Yrotation Xrotation
			JOINT mixamorig:LeftFoot
			{
				OFFSET	1.1958	-44.1070	-5.7230
				CHANNELS 3 Zrotation Yrotation Xrotation
				JOINT mixamorig:LeftToeBase
				{
					OFFSET	2.5995	-11.8143	15.8139
					CHANNELS 3 Zrotation Yrotation Xrotation
					End Site
					{
						OFFSET 1.2230 0.0445 7.9736
					}
				}
			}
		}
	}
	JOINT mixamorig:RightUpLeg
	{
		OFFSET	-9.9411	-5.2725	-1.2117
		CHANNELS 3 Zrotation Yrotation Xrotation
		JOINT mixamorig:RightLeg
		{
			OFFSET	-1.3852	-43.3265	-0.5841
			CHANNELS 3 Zrotation Yrotation Xrotation
			JOINT mixamorig:RightFoot
			{
				OFFSET	-1.1958	-44.1069	-6.3865
				CHANNELS 3 Zrotation Yrotation Xrotation
				JOINT mixamorig:RightToeBase
				{
					OFFSET	-2.5995	-11.8146	15.9998
					CHANNELS 3 Zrotation Yrotation Xrotation
					End Site
					{
						OFFSET -1.2231 0.0444 7.9271
					}
				}
			}
		}
	}
}
MOTION
Frames: 7
Frame Time: 0.0333333
-1.1850 104.3199 1.1247 -1.1924 -0.0495 -0.3789 0.1186 -0.2597 -0.0870 0.0256 -2.0667 -0.4204 0.0272 -2.0605 -0.4245 -1.3394 1.6039 -1.6877 2.2101 -0.6202 9.2690 8.7192 12.0895 0.8134 -37.4170 -12.4190 14.4568 -9.0315 -9.6051 -4.1066 -5.8358 16.0659 21.3226 -6.0854 10.3186 -9.5842 16.1032 8.2984 -3.9999 -8.0758 -8.6147 -11.2358 -12.6222 -1.7318 7.1775 -21.5191 -6.6919 7.9897 -5.7554 2.5211 6.0806 -22.1297 -11.6047 5.7454 1.8863 -0.4760 -1.3022 -4.0980 -0.4350 0.8279 -26.7329 -16.4836 4.0838 16.5120 1.2879 -3.8590 1.0858 2.3905 8.1513 -24.7073 -21.9719 -3.2164 15.2417 2.5390 7.5766 -19.6104 2.5392 14.4894 -13.0222 -2.4852 0.5143 45.3798 15.8238 15.0476 9.3291 5.8756 -1.6572 0.4460 -20.6888 10.3398 -5.9372 -11.0547 8.1575 -10.7233 1.4057 -11.8296 6.1204 7.7808 -12.3717 -0.9066 -3.8222 2.6098 30.5209 5.7564 13.0603 3.1486 -0.5267 2.3245 11.5251 3.4845 5.4589 2.2375 4.3473 -3.4516 5.2285 -2.2461 1.8553 26.1889 15.8459 5.4502 -9.1196 -2.7426 0.4477 -1.8247 -1.2966 -2.8493 12.5588 15.0144 -4.7003 -12.3696 -3.2514 6.7876 17.8993 -1.7688 14.0086 1.4902 3.2008 -12.2649 4.6286 9.0715 19.6976 -3.0374 2.4286 -6.4065 -0.0000 0.0000 -0.0498 -1.4640 -12.9944 -11.9230 -2.4912 -5.0931 14.7583 3.8771 -3.9974 -1.4536 0.0000 -0.0000 -0.1142 
-0.7730 104.2931 1.0682 -1.3078 -0.2924 -0.4473 0.1222 -0.2435 -0.0447 -0.0007 -2.0459 -0.3529 0.0023 -2.0401 -0.3564 -1.2601 1.5477 -1.6626 2.3106 -0.6737 9.3533 8.5979 12.0611 0.8025 -37.2969 -12.8250 14.4862 -9.0451 -9.4797 -4.0246 -5.9537 16.2503 21.2724 -6.0801 10.3308 -9.5781 16.0830 8.3055 -4.0256 -8.0824 -8.6243 -11.2478 -12.7395 -1.6717 7.3029 -21.5882 -6.6866 8.0318 -5.8739 2.5196 6.1411 -22.2652 -11.5695 5.8396 1.7772 -0.4808 -1.2593 -4.0498 -0.4353 0.8094 -26.8281 -16.4972 4.1166 16.4199 1.2820 -3.8307 1.1082 2.3905 8.1438 -25.0718 -21.9884 -3.0789 15.0459 2.5542 7.6218 -19.6112 2.5393 14.4896 -12.8660 -2.3155 0.5061 45.2984 15.8272 14.7871 9.3322 5.8287 -1.6271 0.4877 -20.6909 10.2250 -6.1562 -11.0839 8.3947 -10.5166 1.3882 -12.0932 6.1634 7.8531 -12.4713 -0.9321 -3.8991 2.6623 30.6985 5.7297 13.1635 3.1025 -0.5292 2.3021 11.9716 3.4122 5.7896 2.1699 4.3430 -3.4809 5.1029 -2.2923 1.7765 26.5847 15.6959 5.7287 -9.2660 -2.7455 0.4118 -1.9160 -1.3627 -2.9045 13.0951 14.9407 -4.2900 -12.3185 -3.2539 6.8017 17.7032 -1.7620 13.9414 1.3734 3.0462 -12.3611 4.6057 9.0695 20.0575 -2.8111 2.7973 -6.6592 0.0000 -0.0000 -0.0665 -1.5749 -13.1731 -11.8621 -2.4832 -4.9468 14.5891 4.0738 -3.7883 -1.2046 -0.0000 0.0000 -0.2383 
-0.3503 104.2476 1.0012 -1.4111 -0.5397 -0.5319 0.1173 -0.2209 0.0100 -0.0330 -2.0246 -0.2655 -0.0283 -2.0194 -0.2682 -1.1734 1.4835 -1.6517 2.4435 -0.7475 9.3938 8.4687 11.9552 0.7875 -37.2119 -13.4135 14.5961 -9.0618 -9.3243 -3.9233 -6.1255 16.4976 21.1109 -6.0799 10.3230 -9.5882 16.0887 8.3028 -4.0163 -8.0811 -8.6150 -11.2328 -12.8306 -1.6408 7.3869 -21.6995 -6.6778 8.0996 -6.0218 2.5180 6.2166 -22.3642 -11.5526 5.9020 1.6335 -0.4870 -1.2028 -4.0137 -0.4355 0.7955 -26.8939 -16.5107 4.1361 16.3096 1.2750 -3.7968 1.1253 2.3906 8.1381 -25.3996 -21.9924 -2.9445 14.8361 2.5707 7.6702 -19.6112 2.5393 14.4896 -12.6653 -2.0572 0.4973 45.1663 15.9162 14.5007 9.3364 5.7640 -1.5857 0.5675 -20.7639 10.0695 -6.3055 -11.0905 8.6244 -10.3496 1.3741 -12.3085 6.1982 7.9135 -12.5558 -0.8991 -3.9511 2.7368 30.8762 5.7027 13.2666 3.0361 -0.5327 2.2699 12.0990 3.3517 5.9148 2.3951 4.3573 -3.3835 5.0378 -2.2865 1.7556 26.6958 15.6113 5.8331 -9.0075 -2.7404 0.4751 -1.9453 -1.3623 -2.9124 13.2700 14.8907 -4.1204 -12.1274 -3.2631 6.8543 17.6606 -1.7605 13.9267 1.2299 2.9429 -12.4921 4.6134 9.0564 20.5018 -2.5913 3.1170 -6.9428 0.0000 0.0000 -0.0844 -1.7086 -13.3570 -11.8552 -2.4842 -4.7900 14.5423 4.2853 -3.5658 -1.0037 -0.0000 -0.0000 -0.2935 
0.0809 104.1855 0.9267 -1.5079 -0.7828 -0.6284 0.1030 -0.1918 0.0758 -0.0729 -2.0034 -0.1601 -0.0665 -1.9989 -0.1617 -1.0748 1.4096 -1.6518 2.6245 -0.8487 9.3936 8.3553 11.7584 0.7699 -37.1793 -14.1819 14.7919 -9.0804 -9.1463 -3.8073 -6.3419 16.7922 20.8392 -6.0864 10.2915 -9.6167 16.1293 8.2877 -3.9615 -8.0691 -8.5827 -11.1861 -12.8690 -1.6410 7.4110 -21.8796 -6.6635 8.2092 -6.2123 2.5162 6.3140 -22.3886 -11.5483 5.9174 1.4372 -0.4952 -1.1256 -4.0007 -0.4356 0.7905 -26.8950 -16.5060 4.1401 16.1738 1.2665 -3.7551 1.1316 2.3906 8.1360 -25.6270 -21.9632 -2.8165 14.6140 2.5884 7.7213 -19.6105 2.5392 14.4894 -12.3957 -1.6752 0.4895 44.9373 16.0702 14.2193 9.3395 5.7153 -1.5545 0.6893 -20.9073 9.8602 -6.3549 -11.0771 8.7891 -10.2608 1.3665 -12.4249 6.2168 7.9479 -12.6052 -0.8319 -3.9688 2.8056 31.0690 5.6731 13.3785 2.9683 -0.5364 2.2371 11.9195 3.3192 5.8300 2.8990 4.3879 -3.1652 5.0460 -2.2337 1.7942 26.5469 15.6057 5.7670 -8.3728 -2.7291 0.6306 -1.9092 -1.2997 -2.8742 13.1167 14.8772 -4.1887 -11.8410 -3.2774 6.9332 17.7715 -1.7643 13.9648 1.0641 2.9034 -12.6563 4.6535 9.0294 21.0181 -2.3789 3.3779 -7.2514 0.0000 -0.0000 -0.0938 -1.8587 -13.5245 -11.8932 -2.4964 -4.6408 14.5986 4.5116 -3.3402 -0.8454 0.0000 0.0000 -0.2831 
0.5185 104.1092 0.8468 -1.6027 -1.0158 -0.7300 0.0801 -0.1569 0.1505 -0.1208 -1.9837 -0.0406 -0.1124 -1.9801 -0.0407 -0.9630 1.3260 -1.6563 2.8503 -0.9778 9.3555 8.2689 11.4806 0.7508 -37.2040 -15.1025 15.0618 -9.0997 -8.9587 -3.6851 -6.5907 17.1066 20.4764 -6.1002 10.2374 -9.6613 16.2075 8.2594 -3.8588 -8.0444 -8.5275 -11.1088 -12.8406 -1.6595 7.3772 -22.1387 -6.6423 8.3669 -6.4502 2.5144 6.4355 -22.3200 -11.5429 5.8866 1.1818 -0.5054 -1.0251 -4.0159 -0.4355 0.7963 -26.8139 -16.4680 4.1323 16.0103 1.2564 -3.7048 1.1245 2.3906 8.1384 -25.7236 -21.8881 -2.6927 14.3816 2.6071 7.7748 -19.6092 2.5392 14.4890 -12.0465 -1.1572 0.4848 44.5850 16.2774 13.9736 9.3396 5.7139 -1.5537 0.8390 -21.0946 9.6108 -6.3122 -11.0543 8.8506 -10.2612 1.3660 -12.4273 6.2172 7.9512 -12.6117 -0.7745 -3.9477 2.8303 31.3004 5.6370 13.5127 2.9262 -0.5387 2.2166 11.5293 3.3272 5.5835 3.5825 4.4264 -2.8689 5.1209 -2.1555 1.8752 26.2402 15.6759 5.5795 -7.5122 -2.7166 0.8416 -1.8257 -1.2006 -2.8063 12.7687 14.9054 -4.4274 -11.3530 -3.3025 7.0675 17.9831 -1.7718 14.0373 0.8849 2.9251 -12.8535 4.7177 8.9916 21.5923 -2.1705 3.5836 -7.5790 0.0000 -0.0000 -0.0895 -2.0173 -13.6637 -11.9688 -2.5248 -4.5151 14.7347 4.7528 -3.1126 -0.7199 0.0000 0.0000 -0.2132 
0.9598 104.0209 0.7613 -1.6972 -1.2366 -0.8277 0.0505 -0.1181 0.2309 -0.1755 -1.9678 0.0881 -0.1650 -1.9651 0.0897 -0.8392 1.2347 -1.6568 3.0992 -1.1261 9.2838 8.2103 11.1486 0.7317 -37.2801 -16.1155 15.3749 -9.1178 -8.7788 -3.5681 -6.8565 17.4051 20.0515 -6.1203 10.1664 -9.7166 16.3184 8.2194 -3.7149 -8.0077 -8.4532 -11.0067 -12.7392 -1.6756 7.2994 -22.4722 -6.6139 8.5697 -6.7327 2.5129 6.5798 -22.1597 -11.5226 5.8200 0.8716 -0.5172 -0.9030 -4.0587 -0.4353 0.8128 -26.6570 -16.3925 4.1187 15.8218 1.2449 -3.6467 1.1042 2.3905 8.1451 -25.7049 -21.7697 -2.5688 14.1409 2.6267 7.8300 -19.6083 2.5392 14.4888 -11.6263 -0.5179 0.4852 44.1136 16.5345 13.7826 9.3355 5.7778 -1.5945 0.9916 -21.2848 9.3516 -6.2148 -11.0358 8.7973 -10.3359 1.3713 -12.3354 6.2030 7.9276 -12.5800 -0.7687 -3.8897 2.7801 31.5881 5.5913 13.6794 2.9307 -0.5385 2.2188 11.0769 3.3818 5.2612 4.2982 4.4628 -2.5582 5.2374 -2.0813 1.9693 25.9183 15.8038 5.3486 -6.6381 -2.7071 1.0561 -1.7270 -1.1015 -2.7343 12.4096 14.9735 -4.7295 -10.8563 -3.3292 7.2039 18.2123 -1.7802 14.1159 0.7020 2.9908 -13.0854 4.7903 8.9512 22.2097 -1.9595 3.7506 -7.9195 0.0000 -0.0000 -0.0720 -2.1772 -13.7812 -12.0824 -2.5738 -4.4208 14.9328 5.0079 -2.8716 -0.6179 0.0000 -0.0000 -0.0960 
1.4025 103.9237 0.6683 -1.7918 -1.4476 -0.9133 0.0172 -0.0777 0.3142 -0.2344 -1.9571 0.2212 -0.2216 -1.9555 0.2247 -0.7064 1.1395 -1.6453 3.3394 -1.2763 9.1859 8.1752 10.7928 0.7137 -37.3943 -17.1351 15.6852 -9.1329 -8.6256 -3.4686 -7.1207 17.6500 19.5957 -6.1447 10.0865 -9.7759 16.4521 8.1712 -3.5422 -7.9612 -8.3655 -10.8883 -12.5609 -1.6711 7.1904 -22.8654 -6.5789 8.8088 -7.0525 2.5121 6.7432 -21.9228 -11.4825 5.7284 0.5181 -0.5299 -0.7638 -4.1256 -0.4349 0.8384 -26.4508 -16.2911 4.1022 15.6139 1.2325 -3.5827 1.0722 2.3904 8.1558 -25.6267 -21.6265 -2.4423 13.8938 2.6470 7.8867 -19.6085 2.5392 14.4888 -11.1586 0.2075 0.4923 43.5577 16.8390 13.6464 9.3272 5.9047 -1.6757 1.1216 -21.4388 9.1121 -6.1109 -11.0332 8.6428 -10.4543 1.3799 -12.1892 6.1811 7.8874 -12.5229 -0.8309 -3.8033 2.6507 31.9294 5.5360 13.8769 2.9821 -0.5357 2.2437 10.7314 3.4809 4.9703 4.8944 4.4903 -2.2992 5.3548 -2.0382 2.0428 25.7267 15.9608 5.1609 -5.9565 -2.7020 1.2234 -1.6490 -1.0373 -2.6838 12.2234 15.0738 -4.9773 -10.4599 -3.3514 7.3126 18.3757 -1.7864 14.1718 0.5244 3.0781 -13.3500 4.8540 8.9189 22.8497 -1.7395 3.9030 -8.2629 0.0000 0.0000 -0.0441 -2.3310 -13.9022 -12.2354 -2.6423 -4.3501 15.1712 5.2715 -2.6016 -0.5255 0.0000 0.0000 -0.0000 
